<svg width="200" height="128" viewBox="0 0 200 128" fill="none" xmlns="http://www.w3.org/2000/svg">
  <!-- Panel housing -->
  <rect x="4" y="16" width="192" height="96" rx="18" fill="#111425" stroke="#1E2235" stroke-width="1.5"/>
  <rect x="4" y="16" width="192" height="8" rx="18" fill="url(#panelTop)"/>
  <!-- Screws -->
  <circle cx="20" cy="100" r="3" fill="#0C0E1A"/>
  <circle cx="20" cy="100" r="1.5" fill="#1E2235"/>
  <circle cx="180" cy="100" r="3" fill="#0C0E1A"/>
  <circle cx="180" cy="100" r="1.5" fill="#1E2235"/>

  <!-- Red (dimmed) -->
  <circle cx="50" cy="60" r="20" fill="#0C0E1A" stroke="#EF4444" stroke-width="1" stroke-opacity="0.4"/>
  <circle cx="50" cy="60" r="13" fill="#EF4444" fill-opacity="0.12"/>
  <circle cx="50" cy="60" r="9" fill="#EF4444" fill-opacity="0.45"/>
  <circle cx="46.5" cy="56" r="2.5" fill="#FCA5A5" fill-opacity="0.3"/>

  <!-- Amber (moderate) -->
  <circle cx="100" cy="60" r="20" fill="#0C0E1A" stroke="#F59E0B" stroke-width="1" stroke-opacity="0.5"/>
  <circle cx="100" cy="60" r="13" fill="#F59E0B" fill-opacity="0.15"/>
  <circle cx="100" cy="60" r="9" fill="#F59E0B" fill-opacity="0.65"/>
  <circle cx="96.5" cy="56" r="2.5" fill="#FDE68A" fill-opacity="0.45"/>

  <!-- Green hero -->
  <circle cx="152" cy="60" r="32" fill="#10B981" fill-opacity="0.05"/>
  <circle cx="152" cy="60" r="26" fill="#10B981" fill-opacity="0.09"/>
  <circle cx="152" cy="60" r="20" fill="#0C0E1A" stroke="#10B981" stroke-width="1.8"/>
  <circle cx="152" cy="60" r="15" fill="#10B981" fill-opacity="0.18"/>
  <circle cx="152" cy="60" r="11" fill="#10B981"/>
  <circle cx="152" cy="60" r="6" fill="#34D399"/>
  <path d="M146 60 L150 64.5 L159 54" stroke="white" stroke-width="2.8" stroke-linecap="round" stroke-linejoin="round"/>
  <circle cx="148" cy="55.5" r="3" fill="#A7F3D0" fill-opacity="0.6"/>

  <defs>
    <linearGradient id="panelTop" x1="100" y1="16" x2="100" y2="24" gradientUnits="userSpaceOnUse">
      <stop offset="0%" stop-color="#2D3456" stop-opacity="0.3"/>
      <stop offset="100%" stop-color="#111425" stop-opacity="0"/>
    </linearGradient>
  </defs>
</svg>
